G04*
G04 #@! TF.GenerationSoftware,Altium Limited,CircuitMaker,2.3.0 (3)*
G04*
G04 Layer_Color=16770453*
%FSLAX25Y25*%
%MOIN*%
G70*
G04*
G04 #@! TF.SameCoordinates,6EBB3FB8-42FC-4EEB-9329-B38C04EA0A88*
G04*
G04*
G04 #@! TF.FilePolarity,Positive*
G04*
G01*
G75*
%ADD17R,0.07087X0.11811*%
%ADD25R,0.03543X0.03150*%
G04:AMPARAMS|DCode=77|XSize=35.43mil|YSize=33.47mil|CornerRadius=0mil|HoleSize=0mil|Usage=FLASHONLY|Rotation=45.000|XOffset=0mil|YOffset=0mil|HoleType=Round|Shape=Rectangle|*
%AMROTATEDRECTD77*
4,1,4,-0.00070,-0.02436,-0.02436,-0.00070,0.00070,0.02436,0.02436,0.00070,-0.00070,-0.02436,0.0*
%
%ADD77ROTATEDRECTD77*%

G04:AMPARAMS|DCode=78|XSize=35.43mil|YSize=31.5mil|CornerRadius=0mil|HoleSize=0mil|Usage=FLASHONLY|Rotation=315.000|XOffset=0mil|YOffset=0mil|HoleType=Round|Shape=Rectangle|*
%AMROTATEDRECTD78*
4,1,4,-0.02366,0.00139,-0.00139,0.02366,0.02366,-0.00139,0.00139,-0.02366,-0.02366,0.00139,0.0*
%
%ADD78ROTATEDRECTD78*%

G04:AMPARAMS|DCode=79|XSize=74.8mil|YSize=42.13mil|CornerRadius=0mil|HoleSize=0mil|Usage=FLASHONLY|Rotation=270.000|XOffset=0mil|YOffset=0mil|HoleType=Round|Shape=Octagon|*
%AMOCTAGOND79*
4,1,8,-0.01053,-0.03740,0.01053,-0.03740,0.02106,-0.02687,0.02106,0.02687,0.01053,0.03740,-0.01053,0.03740,-0.02106,0.02687,-0.02106,-0.02687,-0.01053,-0.03740,0.0*
%
%ADD79OCTAGOND79*%

%ADD80R,0.04213X0.07480*%
G04:AMPARAMS|DCode=81|XSize=35.43mil|YSize=31.5mil|CornerRadius=0mil|HoleSize=0mil|Usage=FLASHONLY|Rotation=45.000|XOffset=0mil|YOffset=0mil|HoleType=Round|Shape=Rectangle|*
%AMROTATEDRECTD81*
4,1,4,-0.00139,-0.02366,-0.02366,-0.00139,0.00139,0.02366,0.02366,0.00139,-0.00139,-0.02366,0.0*
%
%ADD81ROTATEDRECTD81*%

G04:AMPARAMS|DCode=82|XSize=37.4mil|YSize=39.37mil|CornerRadius=0mil|HoleSize=0mil|Usage=FLASHONLY|Rotation=45.000|XOffset=0mil|YOffset=0mil|HoleType=Round|Shape=Rectangle|*
%AMROTATEDRECTD82*
4,1,4,0.00070,-0.02714,-0.02714,0.00070,-0.00070,0.02714,0.02714,-0.00070,0.00070,-0.02714,0.0*
%
%ADD82ROTATEDRECTD82*%

%ADD83R,0.03937X0.04724*%
%ADD84R,0.03268X0.03268*%
%ADD85R,0.05905X0.02756*%
%ADD86R,0.01181X0.02756*%
%ADD87R,0.03937X0.02756*%
D17*
X68504Y132874D02*
D03*
X92913D02*
D03*
D25*
X279528Y27067D02*
D03*
Y22146D02*
D03*
X204724Y27067D02*
D03*
Y22146D02*
D03*
X129921Y27067D02*
D03*
Y22146D02*
D03*
X55118Y27067D02*
D03*
Y22146D02*
D03*
X279528Y101870D02*
D03*
Y96949D02*
D03*
X204724Y101870D02*
D03*
Y96949D02*
D03*
X129921Y101870D02*
D03*
Y96949D02*
D03*
X55118Y101870D02*
D03*
Y96949D02*
D03*
D77*
X40672Y196532D02*
D03*
X44291Y192913D02*
D03*
X44609Y200469D02*
D03*
X48228Y196850D02*
D03*
D78*
X34220Y193669D02*
D03*
X30740Y190189D02*
D03*
X61252Y194126D02*
D03*
X64732Y197606D02*
D03*
X65189Y190189D02*
D03*
X68669Y193669D02*
D03*
X47473Y188221D02*
D03*
X50953Y191701D02*
D03*
D79*
X71457Y153937D02*
D03*
D80*
X81457Y166929D02*
D03*
X91457Y153937D02*
D03*
X101457Y166929D02*
D03*
X111457Y153937D02*
D03*
X121457Y166929D02*
D03*
D81*
X44748Y181630D02*
D03*
X48228Y178150D02*
D03*
D82*
X50923Y183797D02*
D03*
X55377Y188251D02*
D03*
D83*
X80709Y121850D02*
D03*
Y92716D02*
D03*
D84*
X49665Y75787D02*
D03*
X40886D02*
D03*
X115689D02*
D03*
X124469D02*
D03*
X190492D02*
D03*
X199272D02*
D03*
X265295D02*
D03*
X274075D02*
D03*
Y89567D02*
D03*
X265295D02*
D03*
X40886D02*
D03*
X49665D02*
D03*
X199272D02*
D03*
X190492D02*
D03*
X124469D02*
D03*
X115689D02*
D03*
D85*
X301673Y91535D02*
D03*
Y79724D02*
D03*
Y73819D02*
D03*
D86*
X103347Y195276D02*
D03*
X105315D02*
D03*
X107283D02*
D03*
X109252D02*
D03*
X111221D02*
D03*
X113189D02*
D03*
X117126D02*
D03*
X119095D02*
D03*
X121063D02*
D03*
X123031D02*
D03*
X125000D02*
D03*
X126969D02*
D03*
X114173Y200394D02*
D03*
X116142D02*
D03*
X118110D02*
D03*
X120079D02*
D03*
X112205D02*
D03*
X110236D02*
D03*
X106299D02*
D03*
X108268D02*
D03*
X122047D02*
D03*
X124016D02*
D03*
D87*
X102953D02*
D03*
X127362D02*
D03*
M02*
