G04*
G04 #@! TF.GenerationSoftware,Altium Limited,CircuitMaker,2.3.0 (3)*
G04*
G04 Layer_Color=20142*
%FSLAX25Y25*%
%MOIN*%
G70*
G04*
G04 #@! TF.SameCoordinates,6EBB3FB8-42FC-4EEB-9329-B38C04EA0A88*
G04*
G04*
G04 #@! TF.FilePolarity,Negative*
G04*
G01*
G75*
%ADD33R,0.07887X0.12611*%
G04:AMPARAMS|DCode=34|XSize=18.63mil|YSize=90.68mil|CornerRadius=0mil|HoleSize=0mil|Usage=FLASHONLY|Rotation=315.000|XOffset=0mil|YOffset=0mil|HoleType=Round|Shape=Round|*
%AMOVALD34*
21,1,0.07205,0.01863,0.00000,0.00000,45.0*
1,1,0.01863,-0.02547,-0.02547*
1,1,0.01863,0.02547,0.02547*
%
%ADD34OVALD34*%

G04:AMPARAMS|DCode=35|XSize=18.63mil|YSize=90.68mil|CornerRadius=0mil|HoleSize=0mil|Usage=FLASHONLY|Rotation=225.000|XOffset=0mil|YOffset=0mil|HoleType=Round|Shape=Round|*
%AMOVALD35*
21,1,0.07205,0.01863,0.00000,0.00000,315.0*
1,1,0.01863,-0.02547,0.02547*
1,1,0.01863,0.02547,-0.02547*
%
%ADD35OVALD35*%

G04:AMPARAMS|DCode=36|XSize=18.63mil|YSize=90.68mil|CornerRadius=0mil|HoleSize=0mil|Usage=FLASHONLY|Rotation=315.000|XOffset=0mil|YOffset=0mil|HoleType=Round|Shape=Round|*
%AMOVALD36*
21,1,0.07205,0.01863,0.00000,0.00000,45.0*
1,1,0.01863,-0.02547,-0.02547*
1,1,0.01863,0.02547,0.02547*
%
%ADD36OVALD36*%

%ADD37R,0.04147X0.04343*%
%ADD38R,0.04737X0.04934*%
G04:AMPARAMS|DCode=39|XSize=39.5mil|YSize=39.5mil|CornerRadius=7.15mil|HoleSize=0mil|Usage=FLASHONLY|Rotation=0.000|XOffset=0mil|YOffset=0mil|HoleType=Round|Shape=RoundedRectangle|*
%AMROUNDEDRECTD39*
21,1,0.03950,0.02520,0,0,0.0*
21,1,0.02520,0.03950,0,0,0.0*
1,1,0.01430,0.01260,-0.01260*
1,1,0.01430,-0.01260,-0.01260*
1,1,0.01430,-0.01260,0.01260*
1,1,0.01430,0.01260,0.01260*
%
%ADD39ROUNDEDRECTD39*%
%ADD40R,0.04343X0.04147*%
%ADD41R,0.04343X0.03950*%
%ADD42O,0.05131X0.02965*%
%ADD43R,0.02768X0.02768*%
G04:AMPARAMS|DCode=44|XSize=59.18mil|YSize=51.31mil|CornerRadius=0mil|HoleSize=0mil|Usage=FLASHONLY|Rotation=135.000|XOffset=0mil|YOffset=0mil|HoleType=Round|Shape=Rectangle|*
%AMROTATEDRECTD44*
4,1,4,0.03906,-0.00278,0.00278,-0.03906,-0.03906,0.00278,-0.00278,0.03906,0.03906,-0.00278,0.0*
%
%ADD44ROTATEDRECTD44*%

G04:AMPARAMS|DCode=45|XSize=43.43mil|YSize=41.47mil|CornerRadius=0mil|HoleSize=0mil|Usage=FLASHONLY|Rotation=135.000|XOffset=0mil|YOffset=0mil|HoleType=Round|Shape=Rectangle|*
%AMROTATEDRECTD45*
4,1,4,0.03002,-0.00070,0.00070,-0.03002,-0.03002,0.00070,-0.00070,0.03002,0.03002,-0.00070,0.0*
%
%ADD45ROTATEDRECTD45*%

%ADD46R,0.06115X0.04737*%
G04:AMPARAMS|DCode=47|XSize=74.93mil|YSize=67.06mil|CornerRadius=0mil|HoleSize=0mil|Usage=FLASHONLY|Rotation=135.000|XOffset=0mil|YOffset=0mil|HoleType=Round|Shape=Rectangle|*
%AMROTATEDRECTD47*
4,1,4,0.05020,-0.00278,0.00278,-0.05020,-0.05020,0.00278,-0.00278,0.05020,0.05020,-0.00278,0.0*
%
%ADD47ROTATEDRECTD47*%

%ADD48R,0.06706X0.11430*%
%ADD49C,0.04343*%
G04:AMPARAMS|DCode=50|XSize=110.36mil|YSize=51.31mil|CornerRadius=25.65mil|HoleSize=0mil|Usage=FLASHONLY|Rotation=270.000|XOffset=0mil|YOffset=0mil|HoleType=Round|Shape=RoundedRectangle|*
%AMROUNDEDRECTD50*
21,1,0.11036,0.00000,0,0,270.0*
21,1,0.05905,0.05131,0,0,270.0*
1,1,0.05131,0.00000,-0.02953*
1,1,0.05131,0.00000,0.02953*
1,1,0.05131,0.00000,0.02953*
1,1,0.05131,0.00000,-0.02953*
%
%ADD50ROUNDEDRECTD50*%
G04:AMPARAMS|DCode=51|XSize=90.68mil|YSize=51.31mil|CornerRadius=25.65mil|HoleSize=0mil|Usage=FLASHONLY|Rotation=270.000|XOffset=0mil|YOffset=0mil|HoleType=Round|Shape=RoundedRectangle|*
%AMROUNDEDRECTD51*
21,1,0.09068,0.00000,0,0,270.0*
21,1,0.03937,0.05131,0,0,270.0*
1,1,0.05131,0.00000,-0.01968*
1,1,0.05131,0.00000,0.01968*
1,1,0.05131,0.00000,0.01968*
1,1,0.05131,0.00000,-0.01968*
%
%ADD51ROUNDEDRECTD51*%
%ADD52C,0.16500*%
%ADD53C,0.09800*%
%ADD54C,0.06800*%
%ADD55C,0.02375*%
%ADD56C,0.03162*%
%ADD57C,0.04737*%
D33*
X133465Y167323D02*
D03*
X157874D02*
D03*
D34*
X64345Y196672D02*
D03*
X62953Y198064D02*
D03*
X61561Y199455D02*
D03*
X60169Y200848D02*
D03*
X58777Y202239D02*
D03*
X57385Y203631D02*
D03*
X55994Y205023D02*
D03*
X54602Y206415D02*
D03*
X53210Y207807D02*
D03*
X51818Y209199D02*
D03*
X50426Y210591D02*
D03*
X49034Y211983D02*
D03*
X26206Y189155D02*
D03*
X27598Y187763D02*
D03*
X28990Y186371D02*
D03*
X30382Y184979D02*
D03*
X31774Y183587D02*
D03*
X33166Y182195D02*
D03*
X34558Y180804D02*
D03*
X35950Y179412D02*
D03*
X37341Y178020D02*
D03*
X38734Y176628D02*
D03*
X40125Y175236D02*
D03*
D35*
X41517Y211983D02*
D03*
X40125Y210591D02*
D03*
X38734Y209199D02*
D03*
X37341Y207807D02*
D03*
X35950Y206415D02*
D03*
X34558Y205023D02*
D03*
X33166Y203631D02*
D03*
X31774Y202239D02*
D03*
X30382Y200848D02*
D03*
X28990Y199455D02*
D03*
X27598Y198064D02*
D03*
X26206Y196672D02*
D03*
X49034Y173844D02*
D03*
X50426Y175236D02*
D03*
X51818Y176628D02*
D03*
X53210Y178020D02*
D03*
X54602Y179412D02*
D03*
X55994Y180804D02*
D03*
X57385Y182195D02*
D03*
X58777Y183587D02*
D03*
X60169Y184979D02*
D03*
X61561Y186371D02*
D03*
X62953Y187763D02*
D03*
X64345Y189155D02*
D03*
D36*
X41517Y173844D02*
D03*
D37*
X143110Y212598D02*
D03*
X148228D02*
D03*
D38*
X130905Y187008D02*
D03*
Y181102D02*
D03*
X124016Y211614D02*
D03*
Y217520D02*
D03*
D39*
X136811Y180905D02*
D03*
Y187205D02*
D03*
D40*
X142717Y188583D02*
D03*
Y183465D02*
D03*
X148622Y188583D02*
D03*
Y183465D02*
D03*
D41*
X154528Y187500D02*
D03*
Y192421D02*
D03*
X160433D02*
D03*
Y187500D02*
D03*
X157480Y204232D02*
D03*
Y199311D02*
D03*
D42*
X150591Y198031D02*
D03*
Y205512D02*
D03*
X140748Y198031D02*
D03*
Y201772D02*
D03*
Y205512D02*
D03*
D43*
X47047Y26378D02*
D03*
X43504D02*
D03*
Y22835D02*
D03*
X47047D02*
D03*
X271457Y101181D02*
D03*
X267913D02*
D03*
Y97638D02*
D03*
X271457D02*
D03*
X196653Y101181D02*
D03*
X193110D02*
D03*
Y97638D02*
D03*
X196653D02*
D03*
X121850Y101181D02*
D03*
X118307D02*
D03*
Y97638D02*
D03*
X121850D02*
D03*
X47047Y101181D02*
D03*
X43504D02*
D03*
Y97638D02*
D03*
X47047D02*
D03*
X271457Y26378D02*
D03*
X267913D02*
D03*
Y22835D02*
D03*
X271457D02*
D03*
X196653Y26378D02*
D03*
X193110D02*
D03*
Y22835D02*
D03*
X196653D02*
D03*
X121850Y26378D02*
D03*
X118307D02*
D03*
Y22835D02*
D03*
X121850D02*
D03*
D44*
X90850Y185397D02*
D03*
X85004Y191243D02*
D03*
X80410Y186650D02*
D03*
X86256Y180804D02*
D03*
D45*
X95314Y179959D02*
D03*
X91694Y176340D02*
D03*
X83820Y200946D02*
D03*
X87439Y204565D02*
D03*
D46*
X106299Y196260D02*
D03*
Y203346D02*
D03*
X124016Y196260D02*
D03*
Y203346D02*
D03*
D47*
X83078Y211652D02*
D03*
X76006Y218723D02*
D03*
X69882Y212598D02*
D03*
X76953Y205527D02*
D03*
D48*
X179134Y173228D02*
D03*
X249134D02*
D03*
X239134D02*
D03*
X229134D02*
D03*
X219134D02*
D03*
X209134D02*
D03*
X199134D02*
D03*
X189134D02*
D03*
D49*
X308563Y88583D02*
D03*
Y76772D02*
D03*
D50*
X98150Y217992D02*
D03*
X132165D02*
D03*
D51*
Y196890D02*
D03*
X98150D02*
D03*
D52*
X269685Y120079D02*
D03*
X194882D02*
D03*
X120079D02*
D03*
X45276D02*
D03*
X269685Y45276D02*
D03*
X194882D02*
D03*
X120079D02*
D03*
X45276D02*
D03*
D53*
X254685Y130079D02*
D03*
X279685Y140079D02*
D03*
X179882Y130079D02*
D03*
X204882Y140079D02*
D03*
X105079Y130079D02*
D03*
X130079Y140079D02*
D03*
X30276Y130079D02*
D03*
X55276Y140079D02*
D03*
X254685Y55276D02*
D03*
X279685Y65276D02*
D03*
X179882Y55276D02*
D03*
X204882Y65276D02*
D03*
X105079Y55276D02*
D03*
X130079Y65276D02*
D03*
X30276Y55276D02*
D03*
X55276Y65276D02*
D03*
D54*
X289685Y120079D02*
D03*
X249685D02*
D03*
X214882D02*
D03*
X174882D02*
D03*
X140079D02*
D03*
X100079D02*
D03*
X65276D02*
D03*
X25276D02*
D03*
X289685Y45276D02*
D03*
X249685D02*
D03*
X214882D02*
D03*
X174882D02*
D03*
X140079D02*
D03*
X100079D02*
D03*
X65276D02*
D03*
X25276D02*
D03*
D55*
X51181Y199803D02*
D03*
X47244Y202756D02*
D03*
X61024Y211614D02*
D03*
X37402Y190945D02*
D03*
X24606Y192913D02*
D03*
X69882Y187992D02*
D03*
X71850Y183071D02*
D03*
X67913Y180118D02*
D03*
X70866Y176181D02*
D03*
X69882Y199803D02*
D03*
X7874Y194882D02*
D03*
X19685Y210630D02*
D03*
X5906Y175197D02*
D03*
X8858Y182503D02*
D03*
X14764Y188976D02*
D03*
X28543Y152559D02*
D03*
X38386Y162402D02*
D03*
X303150Y96457D02*
D03*
X249134Y164370D02*
D03*
X239134Y164409D02*
D03*
X179134Y164370D02*
D03*
X255906Y82677D02*
D03*
X181102D02*
D03*
X106299D02*
D03*
X54134D02*
D03*
X96929Y162402D02*
D03*
X116142Y158465D02*
D03*
X75787Y132874D02*
D03*
X72835Y90551D02*
D03*
X274606Y29528D02*
D03*
X269685Y19685D02*
D03*
X275590Y18701D02*
D03*
X199803Y29528D02*
D03*
X194882Y19685D02*
D03*
X200787Y18701D02*
D03*
X125000Y29528D02*
D03*
X120079Y19685D02*
D03*
X125984Y18701D02*
D03*
X51181D02*
D03*
X45276Y19685D02*
D03*
X50197Y29528D02*
D03*
X208661Y88583D02*
D03*
X133858D02*
D03*
X274606Y103347D02*
D03*
X268701Y94488D02*
D03*
X275590Y93504D02*
D03*
X199803Y103347D02*
D03*
X193898Y94488D02*
D03*
X200787Y93504D02*
D03*
X125984D02*
D03*
X119095Y94488D02*
D03*
X49213D02*
D03*
X125000Y103347D02*
D03*
X106299Y91535D02*
D03*
X31496Y93504D02*
D03*
X54134Y92520D02*
D03*
X50197Y101378D02*
D03*
X64961Y158465D02*
D03*
X229134Y164567D02*
D03*
X219134D02*
D03*
X209134D02*
D03*
X199134D02*
D03*
X189134D02*
D03*
X110236Y162402D02*
D03*
X106299Y164370D02*
D03*
X111221Y170276D02*
D03*
X116142D02*
D03*
X117126Y187008D02*
D03*
X86614Y170791D02*
D03*
X76245Y166886D02*
D03*
X41339Y185039D02*
D03*
X45276Y173228D02*
D03*
X13780Y169291D02*
D03*
X10827Y167323D02*
D03*
X7874Y165354D02*
D03*
X87598Y198819D02*
D03*
X92361Y204565D02*
D03*
X100235Y179959D02*
D03*
X95472Y174213D02*
D03*
X145669Y203740D02*
D03*
X152559Y212598D02*
D03*
X108268Y189961D02*
D03*
X113189Y189961D02*
D03*
X118110Y203740D02*
D03*
X115157Y204724D02*
D03*
D56*
X145669Y179134D02*
D03*
Y192913D02*
D03*
D57*
X117126Y212598D02*
D03*
M02*
