G04*
G04 #@! TF.GenerationSoftware,Altium Limited,CircuitMaker,2.3.0 (3)*
G04*
G04 Layer_Physical_Order=2*
G04 Layer_Color=11993160*
%FSLAX25Y25*%
%MOIN*%
G70*
G04*
G04 #@! TF.SameCoordinates,6EBB3FB8-42FC-4EEB-9329-B38C04EA0A88*
G04*
G04*
G04 #@! TF.FilePolarity,Negative*
G04*
G01*
G75*
%ADD67C,0.04000*%
%ADD68C,0.07543*%
%ADD69C,0.19700*%
%ADD70C,0.09900*%
%ADD71C,0.10700*%
%ADD72C,0.04787*%
%ADD73C,0.05378*%
%ADD74C,0.06362*%
G36*
X294422Y219188D02*
X294976Y218635D01*
X295276Y217911D01*
Y217520D01*
Y182087D01*
Y181695D01*
X294976Y180972D01*
X294422Y180418D01*
X293699Y180118D01*
X176774D01*
X176050Y180418D01*
X175496Y180972D01*
X175197Y181695D01*
Y182087D01*
Y217520D01*
Y217911D01*
X175496Y218635D01*
X176050Y219188D01*
X176774Y219488D01*
X293699D01*
X294422Y219188D01*
D02*
G37*
D67*
X293699Y219488D02*
X294422Y219188D01*
X294976Y218635D01*
X295276Y217911D01*
Y217520D02*
Y217911D01*
Y182087D02*
Y217520D01*
Y181695D02*
Y182087D01*
X294976Y180972D02*
X295276Y181695D01*
X294422Y180418D02*
X294976Y180972D01*
X293699Y180118D02*
X294422Y180418D01*
X176774Y180118D02*
X293699D01*
X176050Y180418D02*
X176774Y180118D01*
X175496Y180972D02*
X176050Y180418D01*
X175197Y181695D02*
X175496Y180972D01*
X175197Y181695D02*
Y182087D01*
Y217520D01*
Y217911D01*
X175496Y218635D01*
X176050Y219188D01*
X176774Y219488D01*
X293699D01*
X305945Y228346D02*
X307877Y227962D01*
X9015Y228346D02*
X305945D01*
X7083Y227962D02*
X9015Y228346D01*
X5263Y227208D02*
X7083Y227962D01*
X3625Y226114D02*
X5263Y227208D01*
X2232Y224721D02*
X3625Y226114D01*
X1138Y223083D02*
X2232Y224721D01*
X384Y221263D02*
X1138Y223083D01*
X0Y219331D02*
X384Y221263D01*
X0Y218347D02*
Y219331D01*
Y10000D02*
Y218347D01*
Y9015D02*
Y10000D01*
Y9015D02*
X384Y7083D01*
X1138Y5263D01*
X2232Y3625D01*
X3625Y2232D01*
X5263Y1138D01*
X7083Y384D01*
X9015Y0D01*
X305945D01*
X307877Y384D01*
X309697Y1138D01*
X311335Y2232D01*
X312728Y3625D01*
X313823Y5263D01*
X314576Y7083D01*
X314961Y9015D01*
Y10000D01*
Y218347D01*
Y219331D01*
X314576Y221263D02*
X314961Y219331D01*
X313823Y223083D02*
X314576Y221263D01*
X312728Y224721D02*
X313823Y223083D01*
X311335Y226114D02*
X312728Y224721D01*
X309697Y227208D02*
X311335Y226114D01*
X307877Y227962D02*
X309697Y227208D01*
D68*
X308563Y88583D02*
D03*
Y76772D02*
D03*
D69*
X269685Y120079D02*
D03*
X194882D02*
D03*
X120079D02*
D03*
X45276D02*
D03*
X269685Y45276D02*
D03*
X194882D02*
D03*
X120079D02*
D03*
X45276D02*
D03*
D70*
X254685Y130079D02*
D03*
X279685Y140079D02*
D03*
X179882Y130079D02*
D03*
X204882Y140079D02*
D03*
X105079Y130079D02*
D03*
X130079Y140079D02*
D03*
X30276Y130079D02*
D03*
X55276Y140079D02*
D03*
X254685Y55276D02*
D03*
X279685Y65276D02*
D03*
X179882Y55276D02*
D03*
X204882Y65276D02*
D03*
X105079Y55276D02*
D03*
X130079Y65276D02*
D03*
X30276Y55276D02*
D03*
X55276Y65276D02*
D03*
D71*
X289685Y120079D02*
D03*
X249685D02*
D03*
X214882D02*
D03*
X174882D02*
D03*
X140079D02*
D03*
X100079D02*
D03*
X65276D02*
D03*
X25276D02*
D03*
X289685Y45276D02*
D03*
X249685D02*
D03*
X214882D02*
D03*
X174882D02*
D03*
X140079D02*
D03*
X100079D02*
D03*
X65276D02*
D03*
X25276D02*
D03*
D72*
X47244Y202756D02*
D03*
X61024Y211614D02*
D03*
X24606Y192913D02*
D03*
X71850Y183071D02*
D03*
X70866Y176181D02*
D03*
X69882Y199803D02*
D03*
X7874Y194882D02*
D03*
X19685Y210630D02*
D03*
X5906Y175197D02*
D03*
X8858Y182503D02*
D03*
X14764Y188976D02*
D03*
X28543Y152559D02*
D03*
X38386Y162402D02*
D03*
X303150Y96457D02*
D03*
X249134Y164370D02*
D03*
X179134D02*
D03*
X255906Y82677D02*
D03*
X181102D02*
D03*
X106299D02*
D03*
X54134D02*
D03*
X116142Y158465D02*
D03*
X75787Y132874D02*
D03*
X269685Y19685D02*
D03*
X275590Y18701D02*
D03*
X194882Y19685D02*
D03*
X200787Y18701D02*
D03*
X120079Y19685D02*
D03*
X125984Y18701D02*
D03*
X51181D02*
D03*
X45276Y19685D02*
D03*
X208661Y88583D02*
D03*
X133858D02*
D03*
X268701Y94488D02*
D03*
X275590Y93504D02*
D03*
X193898Y94488D02*
D03*
X200787Y93504D02*
D03*
X125984D02*
D03*
X119095Y94488D02*
D03*
X49213D02*
D03*
X106299Y91535D02*
D03*
X31496Y93504D02*
D03*
X54134Y92520D02*
D03*
X64961Y158465D02*
D03*
X229134Y164567D02*
D03*
X219134D02*
D03*
X209134D02*
D03*
X199134D02*
D03*
X189134D02*
D03*
X110236Y162402D02*
D03*
X106299Y164370D02*
D03*
X111221Y170276D02*
D03*
X116142D02*
D03*
X117126Y187008D02*
D03*
X86614Y170791D02*
D03*
X76245Y166886D02*
D03*
X45276Y173228D02*
D03*
X13780Y169291D02*
D03*
X10827Y167323D02*
D03*
X7874Y165354D02*
D03*
X87598Y198819D02*
D03*
X95472Y174213D02*
D03*
X145669Y203740D02*
D03*
X108268Y189961D02*
D03*
X113189Y189961D02*
D03*
X118110Y203740D02*
D03*
X115157Y204724D02*
D03*
D73*
X145669Y192913D02*
D03*
D74*
X117126Y212598D02*
D03*
M02*
