M48
;Layer_Color=6321
;FILE_FORMAT=2:5
INCH,LZ
;TYPE=PLATED
T1F00S00C0.00787
T2F00S00C0.01378
T3F00S00C0.02362
T5F00S00C0.05900
;TYPE=NON_PLATED
T6F00S00C0.03543
T7F00S00C0.06700
T8F00S00C0.15700
%
T01
X0045276Y0019685
X0051181Y0018701
X0050197Y0029528
X0054134Y0082677
Y009252
X0049213Y0094488
X0050197Y0101378
X0031496Y0093504
X0072835Y0090551
X0106299Y0091535
Y0082677
X0119095Y0094488
X0125984Y0093504
X0125Y0103347
X0133858Y0088583
X0125Y0029528
X0125984Y0018701
X0120079Y0019685
X0075787Y0132874
X0028543Y0152559
X0199803Y0103347
X0200787Y0093504
X0193898Y0094488
X0208661Y0088583
X0181102Y0082677
X0199803Y0029528
X0200787Y0018701
X0194882Y0019685
X0269685
X027559Y0018701
X0274606Y0029528
X027559Y0093504
X0268701Y0094488
X0274606Y0103347
X030315Y0096457
X0255906Y0082677
X0249134Y016437
X0239134Y0164409
X0229134Y0164567
X0219134
X0209134
X0199134
X0189134
X0179134Y016437
X0116142Y0170276
X0111221
X0110236Y0162402
X0106299Y016437
X0096929Y0162402
X0095472Y0174213
X0100235Y0179959
X0108268Y0189961
X0113189Y0189961
X0117126Y0187008
X011811Y020374
X0115157Y0204724
X0092361Y0204565
X0087598Y0198819
X0069882Y0199803
Y0187992
X007185Y0183071
X0067913Y0180118
X0070866Y0176181
X0076245Y0166886
X0086614Y0170791
X0064961Y0158465
X0038386Y0162402
X0045276Y0173228
X0041339Y0185039
X0037402Y0190945
X0024606Y0192913
X0014764Y0188976
X0008858Y0182503
X0005906Y0175197
X0007874Y0165354
X0010827Y0167323
X001378Y0169291
X0007874Y0194882
X0019685Y021063
X0047244Y0202756
X0051181Y0199803
X0061024Y0211614
X0145669Y020374
X0152559Y0212598
X0116142Y0158465
T02
X0145669Y0179134
Y0192913
T03
X0117126Y0212598
T05
X0030276Y0055276
X0055276Y0065276
X0105079Y0055276
X0130079Y0065276
Y0140079
X0105079Y0130079
X0055276Y0140079
X0030276Y0130079
X0179882
X0204882Y0140079
X0254685Y0130079
X0279685Y0140079
Y0065276
X0254685Y0055276
X0204882Y0065276
X0179882Y0055276
T06
X0308563Y0076772
Y0088583
T07
X0025276Y0045276
X0065276
X0100079
X0140079
Y0120079
X0100079
X0065276
X0025276
X0174882
X0214882
X0249685
X0289685
Y0045276
X0249685
X0214882
X0174882
T08
X0045276Y0045276
Y0120079
X0120079
Y0045276
X0194882
Y0120079
X0269685
Y0045276
M30
