G04*
G04 #@! TF.GenerationSoftware,Altium Limited,CircuitMaker,2.3.0 (3)*
G04*
G04 Layer_Color=7318015*
%FSLAX25Y25*%
%MOIN*%
G70*
G04*
G04 #@! TF.SameCoordinates,6EBB3FB8-42FC-4EEB-9329-B38C04EA0A88*
G04*
G04*
G04 #@! TF.FilePolarity,Positive*
G04*
G01*
G75*
%ADD17R,0.07087X0.11811*%
G04:AMPARAMS|DCode=18|XSize=10.63mil|YSize=82.68mil|CornerRadius=0mil|HoleSize=0mil|Usage=FLASHONLY|Rotation=315.000|XOffset=0mil|YOffset=0mil|HoleType=Round|Shape=Round|*
%AMOVALD18*
21,1,0.07205,0.01063,0.00000,0.00000,45.0*
1,1,0.01063,-0.02547,-0.02547*
1,1,0.01063,0.02547,0.02547*
%
%ADD18OVALD18*%

G04:AMPARAMS|DCode=19|XSize=10.63mil|YSize=82.68mil|CornerRadius=0mil|HoleSize=0mil|Usage=FLASHONLY|Rotation=225.000|XOffset=0mil|YOffset=0mil|HoleType=Round|Shape=Round|*
%AMOVALD19*
21,1,0.07205,0.01063,0.00000,0.00000,315.0*
1,1,0.01063,-0.02547,0.02547*
1,1,0.01063,0.02547,-0.02547*
%
%ADD19OVALD19*%

G04:AMPARAMS|DCode=20|XSize=10.63mil|YSize=82.68mil|CornerRadius=0mil|HoleSize=0mil|Usage=FLASHONLY|Rotation=315.000|XOffset=0mil|YOffset=0mil|HoleType=Round|Shape=Round|*
%AMOVALD20*
21,1,0.07205,0.01063,0.00000,0.00000,45.0*
1,1,0.01063,-0.02547,-0.02547*
1,1,0.01063,0.02547,0.02547*
%
%ADD20OVALD20*%

%ADD21R,0.03347X0.03543*%
%ADD22R,0.03937X0.04134*%
G04:AMPARAMS|DCode=23|XSize=31.5mil|YSize=31.5mil|CornerRadius=3.15mil|HoleSize=0mil|Usage=FLASHONLY|Rotation=0.000|XOffset=0mil|YOffset=0mil|HoleType=Round|Shape=RoundedRectangle|*
%AMROUNDEDRECTD23*
21,1,0.03150,0.02520,0,0,0.0*
21,1,0.02520,0.03150,0,0,0.0*
1,1,0.00630,0.01260,-0.01260*
1,1,0.00630,-0.01260,-0.01260*
1,1,0.00630,-0.01260,0.01260*
1,1,0.00630,0.01260,0.01260*
%
%ADD23ROUNDEDRECTD23*%
%ADD24R,0.03543X0.03347*%
%ADD25R,0.03543X0.03150*%
%ADD26O,0.04331X0.02165*%
%ADD27R,0.01968X0.01968*%
G04:AMPARAMS|DCode=28|XSize=51.18mil|YSize=43.31mil|CornerRadius=0mil|HoleSize=0mil|Usage=FLASHONLY|Rotation=135.000|XOffset=0mil|YOffset=0mil|HoleType=Round|Shape=Rectangle|*
%AMROTATEDRECTD28*
4,1,4,0.03341,-0.00278,0.00278,-0.03341,-0.03341,0.00278,-0.00278,0.03341,0.03341,-0.00278,0.0*
%
%ADD28ROTATEDRECTD28*%

G04:AMPARAMS|DCode=29|XSize=35.43mil|YSize=33.47mil|CornerRadius=0mil|HoleSize=0mil|Usage=FLASHONLY|Rotation=135.000|XOffset=0mil|YOffset=0mil|HoleType=Round|Shape=Rectangle|*
%AMROTATEDRECTD29*
4,1,4,0.02436,-0.00070,0.00070,-0.02436,-0.02436,0.00070,-0.00070,0.02436,0.02436,-0.00070,0.0*
%
%ADD29ROTATEDRECTD29*%

%ADD30R,0.05315X0.03937*%
G04:AMPARAMS|DCode=31|XSize=66.93mil|YSize=59.05mil|CornerRadius=0mil|HoleSize=0mil|Usage=FLASHONLY|Rotation=135.000|XOffset=0mil|YOffset=0mil|HoleType=Round|Shape=Rectangle|*
%AMROTATEDRECTD31*
4,1,4,0.04454,-0.00278,0.00278,-0.04454,-0.04454,0.00278,-0.00278,0.04454,0.04454,-0.00278,0.0*
%
%ADD31ROTATEDRECTD31*%

%ADD32R,0.05905X0.10630*%
D17*
X133465Y167323D02*
D03*
X157874D02*
D03*
D18*
X64345Y196672D02*
D03*
X62953Y198064D02*
D03*
X61561Y199455D02*
D03*
X60169Y200848D02*
D03*
X58777Y202239D02*
D03*
X57385Y203631D02*
D03*
X55994Y205023D02*
D03*
X54602Y206415D02*
D03*
X53210Y207807D02*
D03*
X51818Y209199D02*
D03*
X50426Y210591D02*
D03*
X49034Y211983D02*
D03*
X26206Y189155D02*
D03*
X27598Y187763D02*
D03*
X28990Y186371D02*
D03*
X30382Y184979D02*
D03*
X31774Y183587D02*
D03*
X33166Y182195D02*
D03*
X34558Y180804D02*
D03*
X35950Y179412D02*
D03*
X37341Y178020D02*
D03*
X38734Y176628D02*
D03*
X40125Y175236D02*
D03*
D19*
X41517Y211983D02*
D03*
X40125Y210591D02*
D03*
X38734Y209199D02*
D03*
X37341Y207807D02*
D03*
X35950Y206415D02*
D03*
X34558Y205023D02*
D03*
X33166Y203631D02*
D03*
X31774Y202239D02*
D03*
X30382Y200848D02*
D03*
X28990Y199455D02*
D03*
X27598Y198064D02*
D03*
X26206Y196672D02*
D03*
X49034Y173844D02*
D03*
X50426Y175236D02*
D03*
X51818Y176628D02*
D03*
X53210Y178020D02*
D03*
X54602Y179412D02*
D03*
X55994Y180804D02*
D03*
X57385Y182195D02*
D03*
X58777Y183587D02*
D03*
X60169Y184979D02*
D03*
X61561Y186371D02*
D03*
X62953Y187763D02*
D03*
X64345Y189155D02*
D03*
D20*
X41517Y173844D02*
D03*
D21*
X143110Y212598D02*
D03*
X148228D02*
D03*
D22*
X130905Y187008D02*
D03*
Y181102D02*
D03*
X124016Y211614D02*
D03*
Y217520D02*
D03*
D23*
X136811Y180905D02*
D03*
Y187205D02*
D03*
D24*
X142717Y188583D02*
D03*
Y183465D02*
D03*
X148622Y188583D02*
D03*
Y183465D02*
D03*
D25*
X154528Y187500D02*
D03*
Y192421D02*
D03*
X160433D02*
D03*
Y187500D02*
D03*
X157480Y204232D02*
D03*
Y199311D02*
D03*
D26*
X150591Y198031D02*
D03*
Y205512D02*
D03*
X140748Y198031D02*
D03*
Y201772D02*
D03*
Y205512D02*
D03*
D27*
X47047Y26378D02*
D03*
X43504D02*
D03*
Y22835D02*
D03*
X47047D02*
D03*
X271457Y101181D02*
D03*
X267913D02*
D03*
Y97638D02*
D03*
X271457D02*
D03*
X196653Y101181D02*
D03*
X193110D02*
D03*
Y97638D02*
D03*
X196653D02*
D03*
X121850Y101181D02*
D03*
X118307D02*
D03*
Y97638D02*
D03*
X121850D02*
D03*
X47047Y101181D02*
D03*
X43504D02*
D03*
Y97638D02*
D03*
X47047D02*
D03*
X271457Y26378D02*
D03*
X267913D02*
D03*
Y22835D02*
D03*
X271457D02*
D03*
X196653Y26378D02*
D03*
X193110D02*
D03*
Y22835D02*
D03*
X196653D02*
D03*
X121850Y26378D02*
D03*
X118307D02*
D03*
Y22835D02*
D03*
X121850D02*
D03*
D28*
X90850Y185397D02*
D03*
X85004Y191243D02*
D03*
X80410Y186650D02*
D03*
X86256Y180804D02*
D03*
D29*
X95314Y179959D02*
D03*
X91694Y176340D02*
D03*
X83820Y200946D02*
D03*
X87439Y204565D02*
D03*
D30*
X106299Y196260D02*
D03*
Y203346D02*
D03*
X124016Y196260D02*
D03*
Y203346D02*
D03*
D31*
X83078Y211652D02*
D03*
X76006Y218723D02*
D03*
X69882Y212598D02*
D03*
X76953Y205527D02*
D03*
D32*
X179134Y173228D02*
D03*
X249134D02*
D03*
X239134D02*
D03*
X229134D02*
D03*
X219134D02*
D03*
X209134D02*
D03*
X199134D02*
D03*
X189134D02*
D03*
M02*
