G04*
G04 #@! TF.GenerationSoftware,Altium Limited,CircuitMaker,2.3.0 (3)*
G04*
G04 Layer_Physical_Order=4*
G04 Layer_Color=11436288*
%FSLAX25Y25*%
%MOIN*%
G70*
G04*
G04 #@! TF.SameCoordinates,6EBB3FB8-42FC-4EEB-9329-B38C04EA0A88*
G04*
G04*
G04 #@! TF.FilePolarity,Positive*
G04*
G01*
G75*
%ADD12C,0.01000*%
%ADD17R,0.07087X0.11811*%
%ADD25R,0.03543X0.03150*%
%ADD58C,0.03543*%
G04:AMPARAMS|DCode=59|XSize=102.36mil|YSize=43.31mil|CornerRadius=21.65mil|HoleSize=0mil|Usage=FLASHONLY|Rotation=270.000|XOffset=0mil|YOffset=0mil|HoleType=Round|Shape=RoundedRectangle|*
%AMROUNDEDRECTD59*
21,1,0.10236,0.00000,0,0,270.0*
21,1,0.05905,0.04331,0,0,270.0*
1,1,0.04331,0.00000,-0.02953*
1,1,0.04331,0.00000,0.02953*
1,1,0.04331,0.00000,0.02953*
1,1,0.04331,0.00000,-0.02953*
%
%ADD59ROUNDEDRECTD59*%
G04:AMPARAMS|DCode=60|XSize=82.68mil|YSize=43.31mil|CornerRadius=21.65mil|HoleSize=0mil|Usage=FLASHONLY|Rotation=270.000|XOffset=0mil|YOffset=0mil|HoleType=Round|Shape=RoundedRectangle|*
%AMROUNDEDRECTD60*
21,1,0.08268,0.00000,0,0,270.0*
21,1,0.03937,0.04331,0,0,270.0*
1,1,0.04331,0.00000,-0.01968*
1,1,0.04331,0.00000,0.01968*
1,1,0.04331,0.00000,0.01968*
1,1,0.04331,0.00000,-0.01968*
%
%ADD60ROUNDEDRECTD60*%
%ADD61C,0.15700*%
%ADD62C,0.09000*%
%ADD63C,0.06000*%
%ADD64C,0.01575*%
%ADD65C,0.02362*%
%ADD66C,0.03937*%
G04:AMPARAMS|DCode=77|XSize=35.43mil|YSize=33.47mil|CornerRadius=0mil|HoleSize=0mil|Usage=FLASHONLY|Rotation=45.000|XOffset=0mil|YOffset=0mil|HoleType=Round|Shape=Rectangle|*
%AMROTATEDRECTD77*
4,1,4,-0.00070,-0.02436,-0.02436,-0.00070,0.00070,0.02436,0.02436,0.00070,-0.00070,-0.02436,0.0*
%
%ADD77ROTATEDRECTD77*%

G04:AMPARAMS|DCode=78|XSize=35.43mil|YSize=31.5mil|CornerRadius=0mil|HoleSize=0mil|Usage=FLASHONLY|Rotation=315.000|XOffset=0mil|YOffset=0mil|HoleType=Round|Shape=Rectangle|*
%AMROTATEDRECTD78*
4,1,4,-0.02366,0.00139,-0.00139,0.02366,0.02366,-0.00139,0.00139,-0.02366,-0.02366,0.00139,0.0*
%
%ADD78ROTATEDRECTD78*%

G04:AMPARAMS|DCode=79|XSize=74.8mil|YSize=42.13mil|CornerRadius=0mil|HoleSize=0mil|Usage=FLASHONLY|Rotation=270.000|XOffset=0mil|YOffset=0mil|HoleType=Round|Shape=Octagon|*
%AMOCTAGOND79*
4,1,8,-0.01053,-0.03740,0.01053,-0.03740,0.02106,-0.02687,0.02106,0.02687,0.01053,0.03740,-0.01053,0.03740,-0.02106,0.02687,-0.02106,-0.02687,-0.01053,-0.03740,0.0*
%
%ADD79OCTAGOND79*%

%ADD80R,0.04213X0.07480*%
G04:AMPARAMS|DCode=81|XSize=35.43mil|YSize=31.5mil|CornerRadius=0mil|HoleSize=0mil|Usage=FLASHONLY|Rotation=45.000|XOffset=0mil|YOffset=0mil|HoleType=Round|Shape=Rectangle|*
%AMROTATEDRECTD81*
4,1,4,-0.00139,-0.02366,-0.02366,-0.00139,0.00139,0.02366,0.02366,0.00139,-0.00139,-0.02366,0.0*
%
%ADD81ROTATEDRECTD81*%

G04:AMPARAMS|DCode=82|XSize=37.4mil|YSize=39.37mil|CornerRadius=0mil|HoleSize=0mil|Usage=FLASHONLY|Rotation=45.000|XOffset=0mil|YOffset=0mil|HoleType=Round|Shape=Rectangle|*
%AMROTATEDRECTD82*
4,1,4,0.00070,-0.02714,-0.02714,0.00070,-0.00070,0.02714,0.02714,-0.00070,0.00070,-0.02714,0.0*
%
%ADD82ROTATEDRECTD82*%

%ADD83R,0.03937X0.04724*%
%ADD84R,0.03268X0.03268*%
%ADD85R,0.05905X0.02756*%
%ADD86R,0.01181X0.02756*%
%ADD87R,0.03937X0.02756*%
D12*
X37402Y190945D02*
X42323D01*
X44291Y192913D01*
X44958Y200469D02*
X47244Y202756D01*
X44609Y200469D02*
X44958D01*
X48228Y196850D02*
X51181Y199803D01*
X40672Y196532D02*
X40672D01*
X44609Y200469D01*
X44291Y192913D02*
X48228Y196850D01*
X61024Y211614D02*
X64961D01*
X76772Y199803D01*
X34220Y193669D02*
X36944Y190945D01*
X37402D01*
X27330Y190189D02*
X30740D01*
X24606Y192913D02*
X27330Y190189D01*
X67386Y187992D02*
X69882D01*
X65189Y190189D02*
X67386Y187992D01*
X41339Y185039D02*
X44520Y188221D01*
X47473D01*
X55377Y188251D02*
X60557Y183071D01*
X71850D01*
X50923Y183797D02*
X54601Y180118D01*
X67913D01*
X76772Y182087D02*
Y199803D01*
X70866Y176181D02*
X76772Y182087D01*
X68669Y193669D02*
Y198590D01*
Y193669D02*
Y193669D01*
Y198590D02*
X69882Y199803D01*
X64732Y197606D02*
X68669Y193669D01*
X61252Y194126D02*
X65189Y190189D01*
Y190189D02*
Y190189D01*
X44291Y192913D02*
X44291D01*
X54402Y188251D02*
X55377D01*
X50953Y191701D02*
X54402Y188251D01*
X50923Y183797D02*
Y184771D01*
X47473Y188221D02*
X50923Y184771D01*
X45276Y175197D02*
X48228Y178150D01*
X45276Y173228D02*
Y175197D01*
X41339Y185039D02*
X44748Y181630D01*
X41339Y185039D02*
X41339D01*
X4921Y199803D02*
X15748Y210630D01*
X4921Y182087D02*
Y199803D01*
Y182087D02*
X8343Y178665D01*
X10575D01*
X7874Y188866D02*
Y194882D01*
Y188866D02*
X12280Y184460D01*
X15748Y210630D02*
X19685D01*
X5906Y175197D02*
X7874Y177165D01*
X8858Y182503D02*
X41708Y149653D01*
X7874Y177165D02*
X9843D01*
X12280Y181203D02*
Y184460D01*
Y181203D02*
X42329Y151154D01*
X13780Y187992D02*
X14764Y188976D01*
X13780Y181824D02*
Y187992D01*
X42950Y152654D02*
X62525D01*
X13780Y181824D02*
X42950Y152654D01*
X9843Y177165D02*
X14854Y172153D01*
X71063Y112205D02*
X80709Y121850D01*
X61024Y112205D02*
X71063D01*
X57087Y116142D02*
X61024Y112205D01*
X57087Y116142D02*
Y125000D01*
X49213Y132874D02*
X57087Y125000D01*
X42323Y132874D02*
X49213D01*
X28543Y146653D02*
X42323Y132874D01*
X28543Y146653D02*
Y152559D01*
X38386Y162402D02*
X71850D01*
X80315Y153937D01*
X91457D01*
X301673Y94980D02*
X303150Y96457D01*
X301673Y91535D02*
Y94980D01*
X269685Y19685D02*
X274606Y14764D01*
X283465D01*
X286417Y17717D01*
Y29528D01*
X282480Y33465D02*
X286417Y29528D01*
X282480Y33465D02*
Y51181D01*
X297433Y66134D01*
Y75730D01*
X301427Y79724D01*
X301673D01*
X181102Y82677D02*
X255906D01*
X106299D02*
X181102D01*
X54134D02*
X106299D01*
X96929Y162402D02*
X101457Y166929D01*
X111614Y153937D02*
X116142Y158465D01*
X111457Y153937D02*
X111614D01*
X101457Y166417D02*
Y166929D01*
X68504Y132874D02*
X75787D01*
X81890Y121850D02*
X92913Y132874D01*
X80709Y121850D02*
X81890D01*
X72835Y90551D02*
X75000Y92716D01*
X80709D01*
X83661Y87598D02*
X87598Y91535D01*
X59055Y87598D02*
X83661D01*
X54134Y92520D02*
X59055Y87598D01*
X274606Y29528D02*
X277067D01*
X279528Y27067D01*
X269685Y19685D02*
X272146Y22146D01*
X279528D01*
X199803Y29528D02*
X202264D01*
X204724Y27067D01*
X194882Y19685D02*
X197343Y22146D01*
X204724D01*
X125000Y29528D02*
X127461D01*
X129921Y27067D01*
X120079Y19685D02*
X122539Y22146D01*
X129921D01*
X47736D02*
X55118D01*
X45276Y19685D02*
X47736Y22146D01*
X52658Y29528D02*
X55118Y27067D01*
X50197Y29528D02*
X52658D01*
X200787Y93504D02*
X205709Y88583D01*
X208661D01*
X130905D02*
X133858D01*
X125984Y93504D02*
X130905Y88583D01*
X268701Y94488D02*
X271161Y96949D01*
X279528D01*
X274606Y103347D02*
X276083Y101870D01*
X279528D01*
X193898Y94488D02*
X196358Y96949D01*
X204724D01*
X199803Y103347D02*
X201279Y101870D01*
X204724D01*
X126476D02*
X129921D01*
X125000Y103347D02*
X126476Y101870D01*
X121555Y96949D02*
X129921D01*
X119095Y94488D02*
X121555Y96949D01*
X54515D02*
X55118D01*
X52055Y94488D02*
X54515Y96949D01*
X49213Y94488D02*
X52055D01*
X87598Y91535D02*
X106299D01*
X108268Y96988D02*
Y126890D01*
Y96988D02*
X115689Y89567D01*
X27559Y93504D02*
X31496D01*
X25122Y91067D02*
X27559Y93504D01*
X50197Y101378D02*
X50689Y101870D01*
X55118D01*
X33465Y102362D02*
X42323Y93504D01*
X45728D01*
X49665Y89567D01*
X62525Y152654D02*
X68430Y146748D01*
X118578D01*
X124483Y152654D01*
X135359D01*
X144218Y143795D01*
X134738Y151154D02*
X143596Y142295D01*
X134117Y149653D02*
X142975Y140795D01*
X133495Y148153D02*
X142354Y139295D01*
X132874Y146653D02*
X141732Y137795D01*
X143596Y142295D02*
X191049D01*
X142975Y140795D02*
X191671D01*
X142354Y139295D02*
X192292D01*
X141732Y137795D02*
X192913D01*
X144218Y143795D02*
X183165D01*
X189134Y149764D01*
Y164567D01*
X42329Y151154D02*
X61903D01*
X67809Y145248D01*
X61282Y149653D02*
X67188Y143748D01*
X60661Y148153D02*
X66566Y142248D01*
X60039Y146653D02*
X65945Y140748D01*
X67188Y143748D02*
X119820D01*
X66566Y142248D02*
X120442D01*
X65945Y140748D02*
X121063D01*
X119820Y143748D02*
X125726Y149653D01*
X120442Y142248D02*
X126347Y148153D01*
X121063Y140748D02*
X126969Y146653D01*
X67809Y145248D02*
X119199D01*
X125104Y151154D01*
X134738D01*
X191049Y142295D02*
X199134Y150380D01*
Y164567D01*
X64961Y158465D02*
X69488Y153937D01*
X71457D01*
X41708Y149653D02*
X61282D01*
X125726D02*
X134117D01*
X191671Y140795D02*
X209134Y158258D01*
Y164567D01*
X201772Y146653D02*
X211221D01*
X192913Y137795D02*
X201772Y146653D01*
X10575Y178665D02*
X41086Y148153D01*
X60661D01*
X126347D02*
X133495D01*
X126969Y146653D02*
X132874D01*
X192292Y139295D02*
X201150Y148153D01*
X210599D01*
X219134Y156688D01*
Y164567D01*
X14854Y172153D02*
X14965D01*
X40465Y146653D01*
X60039D01*
X211221D02*
X229134Y164567D01*
X106299Y164370D02*
X108344Y166415D01*
X110160D01*
X110236Y162402D02*
X111221Y163386D01*
Y165354D01*
X110160Y166415D02*
X111221Y167476D01*
Y170276D01*
Y165354D02*
X116142Y170276D01*
X117126Y187008D02*
Y189961D01*
X117126Y189961D01*
Y195276D01*
X91457Y153937D02*
Y165949D01*
X86614Y170791D02*
X91457Y165949D01*
X76181Y166929D02*
X81457D01*
X13689Y169201D02*
X13780Y169291D01*
X10736Y167232D02*
X10827Y167323D01*
X4921Y162402D02*
X7874Y165354D01*
X44823Y85630D02*
X120531D01*
X40886Y89567D02*
X44823Y85630D01*
X120531D02*
X124469Y89567D01*
X13689Y165000D02*
Y169201D01*
X7921Y159232D02*
X13689Y165000D01*
X7921Y94747D02*
Y159232D01*
X10736Y164169D02*
Y167232D01*
X6421Y159854D02*
X10736Y164169D01*
X6421Y94125D02*
Y159854D01*
X4921Y93504D02*
Y162402D01*
X7921Y94747D02*
X11601Y91067D01*
X25122D01*
X6421Y94125D02*
X10980Y89567D01*
X40886D01*
X4921Y93504D02*
X18701Y79724D01*
X105079Y55276D02*
Y56398D01*
X124469Y75787D01*
X179882Y55276D02*
X199272Y74665D01*
Y75787D01*
X254685Y55276D02*
X274075Y74665D01*
Y75787D01*
X261358Y79724D02*
X265295Y75787D01*
X194429Y79724D02*
X261358D01*
X190492Y75787D02*
X194429Y79724D01*
X186555D02*
X190492Y75787D01*
X119626Y79724D02*
X186555D01*
X115689Y75787D02*
X119626Y79724D01*
X49665Y75787D02*
X115689D01*
X18701Y79724D02*
X45728D01*
X49665Y75787D01*
X257874Y96988D02*
X265295Y89567D01*
X257874Y96988D02*
Y126890D01*
X254685Y130079D02*
X257874Y126890D01*
X183071Y96988D02*
X190492Y89567D01*
X183071Y96988D02*
Y126890D01*
X179882Y130079D02*
X183071Y126890D01*
X105079Y130079D02*
X108268Y126890D01*
X270138Y85630D02*
X274075Y89567D01*
X203209Y85630D02*
X270138D01*
X199272Y89567D02*
X203209Y85630D01*
X195335D02*
X199272Y89567D01*
X128405Y85630D02*
X195335D01*
X124469Y89567D02*
X128405Y85630D01*
X40886Y65886D02*
Y75787D01*
X30276Y55276D02*
X40886Y65886D01*
X33465Y102362D02*
Y126890D01*
X30276Y130079D02*
X33465Y126890D01*
X145669Y192913D02*
Y203740D01*
X112114Y207587D02*
X117126Y212598D01*
X108268Y189961D02*
X111221Y192913D01*
Y195276D01*
X113189Y189961D02*
Y195276D01*
X118110Y203740D02*
X118110Y203740D01*
X118201Y207587D02*
X120079Y205709D01*
Y200394D02*
Y205709D01*
X115157Y204724D02*
X116142Y203740D01*
Y200394D02*
Y203740D01*
X118110Y200394D02*
Y203740D01*
X112114Y207587D02*
X118201D01*
X110236Y200394D02*
Y205709D01*
X112114Y207587D01*
X132165Y196890D02*
Y217992D01*
X98150Y196890D02*
Y217992D01*
X126969Y200000D02*
X127362Y200394D01*
X126969Y195276D02*
Y200000D01*
X127362Y200394D02*
X130866Y196890D01*
X132165D01*
X102953Y200394D02*
X103347Y200000D01*
Y195276D02*
Y200000D01*
X99449Y196890D02*
X102953Y200394D01*
X98150Y196890D02*
X99449D01*
X110146Y200303D02*
X110236Y200394D01*
X110146Y198483D02*
Y200303D01*
X109252Y197589D02*
X110146Y198483D01*
X109252Y195276D02*
Y197589D01*
X120079Y200394D02*
X120169Y200303D01*
Y198483D02*
Y200303D01*
Y198483D02*
X121063Y197589D01*
Y195276D02*
Y197589D01*
X114173Y198228D02*
X117126Y195276D01*
X114173Y198228D02*
Y200394D01*
D17*
X68504Y132874D02*
D03*
X92913D02*
D03*
D25*
X279528Y27067D02*
D03*
Y22146D02*
D03*
X204724Y27067D02*
D03*
Y22146D02*
D03*
X129921Y27067D02*
D03*
Y22146D02*
D03*
X55118Y27067D02*
D03*
Y22146D02*
D03*
X279528Y101870D02*
D03*
Y96949D02*
D03*
X204724Y101870D02*
D03*
Y96949D02*
D03*
X129921Y101870D02*
D03*
Y96949D02*
D03*
X55118Y101870D02*
D03*
Y96949D02*
D03*
D58*
X308563Y88583D02*
D03*
Y76772D02*
D03*
D59*
X98150Y217992D02*
D03*
X132165D02*
D03*
D60*
Y196890D02*
D03*
X98150D02*
D03*
D61*
X269685Y120079D02*
D03*
X194882D02*
D03*
X120079D02*
D03*
X45276D02*
D03*
X269685Y45276D02*
D03*
X194882D02*
D03*
X120079D02*
D03*
X45276D02*
D03*
D62*
X254685Y130079D02*
D03*
X279685Y140079D02*
D03*
X179882Y130079D02*
D03*
X204882Y140079D02*
D03*
X105079Y130079D02*
D03*
X130079Y140079D02*
D03*
X30276Y130079D02*
D03*
X55276Y140079D02*
D03*
X254685Y55276D02*
D03*
X279685Y65276D02*
D03*
X179882Y55276D02*
D03*
X204882Y65276D02*
D03*
X105079Y55276D02*
D03*
X130079Y65276D02*
D03*
X30276Y55276D02*
D03*
X55276Y65276D02*
D03*
D63*
X289685Y120079D02*
D03*
X249685D02*
D03*
X214882D02*
D03*
X174882D02*
D03*
X140079D02*
D03*
X100079D02*
D03*
X65276D02*
D03*
X25276D02*
D03*
X289685Y45276D02*
D03*
X249685D02*
D03*
X214882D02*
D03*
X174882D02*
D03*
X140079D02*
D03*
X100079D02*
D03*
X65276D02*
D03*
X25276D02*
D03*
D64*
X51181Y199803D02*
D03*
X47244Y202756D02*
D03*
X61024Y211614D02*
D03*
X37402Y190945D02*
D03*
X24606Y192913D02*
D03*
X69882Y187992D02*
D03*
X71850Y183071D02*
D03*
X67913Y180118D02*
D03*
X70866Y176181D02*
D03*
X69882Y199803D02*
D03*
X7874Y194882D02*
D03*
X19685Y210630D02*
D03*
X5906Y175197D02*
D03*
X8858Y182503D02*
D03*
X14764Y188976D02*
D03*
X28543Y152559D02*
D03*
X38386Y162402D02*
D03*
X303150Y96457D02*
D03*
X249134Y164370D02*
D03*
X239134Y164409D02*
D03*
X179134Y164370D02*
D03*
X255906Y82677D02*
D03*
X181102D02*
D03*
X106299D02*
D03*
X54134D02*
D03*
X96929Y162402D02*
D03*
X116142Y158465D02*
D03*
X75787Y132874D02*
D03*
X72835Y90551D02*
D03*
X274606Y29528D02*
D03*
X269685Y19685D02*
D03*
X275590Y18701D02*
D03*
X199803Y29528D02*
D03*
X194882Y19685D02*
D03*
X200787Y18701D02*
D03*
X125000Y29528D02*
D03*
X120079Y19685D02*
D03*
X125984Y18701D02*
D03*
X51181D02*
D03*
X45276Y19685D02*
D03*
X50197Y29528D02*
D03*
X208661Y88583D02*
D03*
X133858D02*
D03*
X274606Y103347D02*
D03*
X268701Y94488D02*
D03*
X275590Y93504D02*
D03*
X199803Y103347D02*
D03*
X193898Y94488D02*
D03*
X200787Y93504D02*
D03*
X125984D02*
D03*
X119095Y94488D02*
D03*
X49213D02*
D03*
X125000Y103347D02*
D03*
X106299Y91535D02*
D03*
X31496Y93504D02*
D03*
X54134Y92520D02*
D03*
X50197Y101378D02*
D03*
X64961Y158465D02*
D03*
X229134Y164567D02*
D03*
X219134D02*
D03*
X209134D02*
D03*
X199134D02*
D03*
X189134D02*
D03*
X110236Y162402D02*
D03*
X106299Y164370D02*
D03*
X111221Y170276D02*
D03*
X116142D02*
D03*
X117126Y187008D02*
D03*
X86614Y170791D02*
D03*
X76245Y166886D02*
D03*
X41339Y185039D02*
D03*
X45276Y173228D02*
D03*
X13780Y169291D02*
D03*
X10827Y167323D02*
D03*
X7874Y165354D02*
D03*
X87598Y198819D02*
D03*
X92361Y204565D02*
D03*
X100235Y179959D02*
D03*
X95472Y174213D02*
D03*
X145669Y203740D02*
D03*
X152559Y212598D02*
D03*
X108268Y189961D02*
D03*
X113189Y189961D02*
D03*
X118110Y203740D02*
D03*
X115157Y204724D02*
D03*
D65*
X145669Y179134D02*
D03*
Y192913D02*
D03*
D66*
X117126Y212598D02*
D03*
D77*
X40672Y196532D02*
D03*
X44291Y192913D02*
D03*
X44609Y200469D02*
D03*
X48228Y196850D02*
D03*
D78*
X34220Y193669D02*
D03*
X30740Y190189D02*
D03*
X61252Y194126D02*
D03*
X64732Y197606D02*
D03*
X65189Y190189D02*
D03*
X68669Y193669D02*
D03*
X47473Y188221D02*
D03*
X50953Y191701D02*
D03*
D79*
X71457Y153937D02*
D03*
D80*
X81457Y166929D02*
D03*
X91457Y153937D02*
D03*
X101457Y166929D02*
D03*
X111457Y153937D02*
D03*
X121457Y166929D02*
D03*
D81*
X44748Y181630D02*
D03*
X48228Y178150D02*
D03*
D82*
X50923Y183797D02*
D03*
X55377Y188251D02*
D03*
D83*
X80709Y121850D02*
D03*
Y92716D02*
D03*
D84*
X49665Y75787D02*
D03*
X40886D02*
D03*
X115689D02*
D03*
X124469D02*
D03*
X190492D02*
D03*
X199272D02*
D03*
X265295D02*
D03*
X274075D02*
D03*
Y89567D02*
D03*
X265295D02*
D03*
X40886D02*
D03*
X49665D02*
D03*
X199272D02*
D03*
X190492D02*
D03*
X124469D02*
D03*
X115689D02*
D03*
D85*
X301673Y91535D02*
D03*
Y79724D02*
D03*
Y73819D02*
D03*
D86*
X103347Y195276D02*
D03*
X105315D02*
D03*
X107283D02*
D03*
X109252D02*
D03*
X111221D02*
D03*
X113189D02*
D03*
X117126D02*
D03*
X119095D02*
D03*
X121063D02*
D03*
X123031D02*
D03*
X125000D02*
D03*
X126969D02*
D03*
X114173Y200394D02*
D03*
X116142D02*
D03*
X118110D02*
D03*
X120079D02*
D03*
X112205D02*
D03*
X110236D02*
D03*
X106299D02*
D03*
X108268D02*
D03*
X122047D02*
D03*
X124016D02*
D03*
D87*
X102953D02*
D03*
X127362D02*
D03*
M02*
