G04*
G04 #@! TF.GenerationSoftware,Altium Limited,CircuitMaker,2.3.0 (3)*
G04*
G04 Layer_Physical_Order=1*
G04 Layer_Color=25308*
%FSLAX25Y25*%
%MOIN*%
G70*
G04*
G04 #@! TF.SameCoordinates,6EBB3FB8-42FC-4EEB-9329-B38C04EA0A88*
G04*
G04*
G04 #@! TF.FilePolarity,Positive*
G04*
G01*
G75*
%ADD12C,0.01000*%
%ADD17R,0.07087X0.11811*%
G04:AMPARAMS|DCode=18|XSize=10.63mil|YSize=82.68mil|CornerRadius=0mil|HoleSize=0mil|Usage=FLASHONLY|Rotation=315.000|XOffset=0mil|YOffset=0mil|HoleType=Round|Shape=Round|*
%AMOVALD18*
21,1,0.07205,0.01063,0.00000,0.00000,45.0*
1,1,0.01063,-0.02547,-0.02547*
1,1,0.01063,0.02547,0.02547*
%
%ADD18OVALD18*%

G04:AMPARAMS|DCode=19|XSize=10.63mil|YSize=82.68mil|CornerRadius=0mil|HoleSize=0mil|Usage=FLASHONLY|Rotation=225.000|XOffset=0mil|YOffset=0mil|HoleType=Round|Shape=Round|*
%AMOVALD19*
21,1,0.07205,0.01063,0.00000,0.00000,315.0*
1,1,0.01063,-0.02547,0.02547*
1,1,0.01063,0.02547,-0.02547*
%
%ADD19OVALD19*%

G04:AMPARAMS|DCode=20|XSize=10.63mil|YSize=82.68mil|CornerRadius=0mil|HoleSize=0mil|Usage=FLASHONLY|Rotation=315.000|XOffset=0mil|YOffset=0mil|HoleType=Round|Shape=Round|*
%AMOVALD20*
21,1,0.07205,0.01063,0.00000,0.00000,45.0*
1,1,0.01063,-0.02547,-0.02547*
1,1,0.01063,0.02547,0.02547*
%
%ADD20OVALD20*%

%ADD21R,0.03347X0.03543*%
%ADD22R,0.03937X0.04134*%
G04:AMPARAMS|DCode=23|XSize=31.5mil|YSize=31.5mil|CornerRadius=3.15mil|HoleSize=0mil|Usage=FLASHONLY|Rotation=0.000|XOffset=0mil|YOffset=0mil|HoleType=Round|Shape=RoundedRectangle|*
%AMROUNDEDRECTD23*
21,1,0.03150,0.02520,0,0,0.0*
21,1,0.02520,0.03150,0,0,0.0*
1,1,0.00630,0.01260,-0.01260*
1,1,0.00630,-0.01260,-0.01260*
1,1,0.00630,-0.01260,0.01260*
1,1,0.00630,0.01260,0.01260*
%
%ADD23ROUNDEDRECTD23*%
%ADD24R,0.03543X0.03347*%
%ADD25R,0.03543X0.03150*%
%ADD26O,0.04331X0.02165*%
%ADD27R,0.01968X0.01968*%
G04:AMPARAMS|DCode=28|XSize=51.18mil|YSize=43.31mil|CornerRadius=0mil|HoleSize=0mil|Usage=FLASHONLY|Rotation=135.000|XOffset=0mil|YOffset=0mil|HoleType=Round|Shape=Rectangle|*
%AMROTATEDRECTD28*
4,1,4,0.03341,-0.00278,0.00278,-0.03341,-0.03341,0.00278,-0.00278,0.03341,0.03341,-0.00278,0.0*
%
%ADD28ROTATEDRECTD28*%

G04:AMPARAMS|DCode=29|XSize=35.43mil|YSize=33.47mil|CornerRadius=0mil|HoleSize=0mil|Usage=FLASHONLY|Rotation=135.000|XOffset=0mil|YOffset=0mil|HoleType=Round|Shape=Rectangle|*
%AMROTATEDRECTD29*
4,1,4,0.02436,-0.00070,0.00070,-0.02436,-0.02436,0.00070,-0.00070,0.02436,0.02436,-0.00070,0.0*
%
%ADD29ROTATEDRECTD29*%

%ADD30R,0.05315X0.03937*%
G04:AMPARAMS|DCode=31|XSize=66.93mil|YSize=59.05mil|CornerRadius=0mil|HoleSize=0mil|Usage=FLASHONLY|Rotation=135.000|XOffset=0mil|YOffset=0mil|HoleType=Round|Shape=Rectangle|*
%AMROTATEDRECTD31*
4,1,4,0.04454,-0.00278,0.00278,-0.04454,-0.04454,0.00278,-0.00278,0.04454,0.04454,-0.00278,0.0*
%
%ADD31ROTATEDRECTD31*%

%ADD32R,0.05905X0.10630*%
%ADD58C,0.03543*%
G04:AMPARAMS|DCode=59|XSize=102.36mil|YSize=43.31mil|CornerRadius=21.65mil|HoleSize=0mil|Usage=FLASHONLY|Rotation=270.000|XOffset=0mil|YOffset=0mil|HoleType=Round|Shape=RoundedRectangle|*
%AMROUNDEDRECTD59*
21,1,0.10236,0.00000,0,0,270.0*
21,1,0.05905,0.04331,0,0,270.0*
1,1,0.04331,0.00000,-0.02953*
1,1,0.04331,0.00000,0.02953*
1,1,0.04331,0.00000,0.02953*
1,1,0.04331,0.00000,-0.02953*
%
%ADD59ROUNDEDRECTD59*%
G04:AMPARAMS|DCode=60|XSize=82.68mil|YSize=43.31mil|CornerRadius=21.65mil|HoleSize=0mil|Usage=FLASHONLY|Rotation=270.000|XOffset=0mil|YOffset=0mil|HoleType=Round|Shape=RoundedRectangle|*
%AMROUNDEDRECTD60*
21,1,0.08268,0.00000,0,0,270.0*
21,1,0.03937,0.04331,0,0,270.0*
1,1,0.04331,0.00000,-0.01968*
1,1,0.04331,0.00000,0.01968*
1,1,0.04331,0.00000,0.01968*
1,1,0.04331,0.00000,-0.01968*
%
%ADD60ROUNDEDRECTD60*%
%ADD61C,0.15700*%
%ADD62C,0.09000*%
%ADD63C,0.06000*%
%ADD64C,0.01575*%
%ADD65C,0.02362*%
%ADD66C,0.03937*%
D12*
X51181Y199803D02*
Y202995D01*
X54602Y206415D01*
X47244Y202756D02*
X48158D01*
X53210Y207807D01*
X61024Y210053D02*
Y211614D01*
X55994Y205023D02*
X61024Y210053D01*
X24606Y192913D02*
X26206Y194513D01*
Y196672D01*
X34717Y190945D02*
X37402D01*
X27598Y198064D02*
X34717Y190945D01*
X70429Y183071D02*
X71850D01*
X64345Y189155D02*
X70429Y183071D01*
X67913Y180118D02*
Y182803D01*
X62953Y187763D02*
X67913Y182803D01*
X58777Y183587D02*
X72089Y170276D01*
X77756D01*
X70866Y173620D02*
Y176181D01*
Y173620D02*
X72711Y171776D01*
X67477Y199803D02*
X69882D01*
X64345Y196672D02*
X67477Y199803D01*
X98150Y196890D02*
X104606Y203346D01*
X106299D01*
X131535Y196260D02*
X132165Y196890D01*
X124016Y196260D02*
X131535D01*
X7874Y194882D02*
Y196850D01*
X9795Y198772D01*
X11295Y191677D02*
Y210946D01*
X12795Y191056D02*
Y210324D01*
X10402Y190783D02*
X11295Y191677D01*
X11902Y190162D02*
X12795Y191056D01*
X9795Y211567D02*
X18701Y220472D01*
X9795Y198772D02*
Y211567D01*
X11295Y210946D02*
X19322Y218972D01*
X10402Y187170D02*
Y190783D01*
Y187170D02*
X11295Y186276D01*
Y184940D02*
Y186276D01*
X8858Y182503D02*
X11295Y184940D01*
X38522Y209199D02*
Y209622D01*
X11902Y187791D02*
Y190162D01*
Y187791D02*
X12795Y186897D01*
Y182087D02*
Y186897D01*
Y210324D02*
X19943Y217472D01*
X8858Y178150D02*
X12795Y182087D01*
X20565Y215972D02*
X29388D01*
X19943Y217472D02*
X30672D01*
X19322Y218972D02*
X31744D01*
X18701Y220472D02*
X33028D01*
X14764Y210172D02*
X20565Y215972D01*
X30672Y217472D02*
X38522Y209622D01*
X31744Y218972D02*
X40125Y210591D01*
X33028Y220472D02*
X41517Y211983D01*
X14764Y188976D02*
Y210172D01*
X29388Y215972D02*
X37130Y208230D01*
X19685Y210630D02*
X23528Y214472D01*
X27892D01*
X5906Y175197D02*
X8858Y178150D01*
Y178150D01*
X37130Y207807D02*
Y208230D01*
X27892Y214472D02*
X35950Y206415D01*
X37130Y207807D02*
X37341D01*
X38522Y209199D02*
X38734D01*
X28543Y152559D02*
X28543D01*
X38386Y162402D01*
X303150Y96457D02*
X305118Y98425D01*
Y221457D01*
X303150Y223425D02*
X305118Y221457D01*
X146653Y223425D02*
X303150D01*
X130905Y207677D02*
X146653Y223425D01*
X140748Y210236D02*
X143110Y212598D01*
X140748Y205512D02*
Y210236D01*
X145669Y179134D02*
X157480Y167323D01*
X157874D01*
X249134Y164370D02*
Y173228D01*
X239134Y164409D02*
Y173228D01*
X179134Y164370D02*
Y173228D01*
X256890Y82677D02*
X268701Y94488D01*
X255906Y82677D02*
X256890D01*
X181102D02*
X182087D01*
X193898Y94488D01*
X107283Y82677D02*
X119095Y94488D01*
X106299Y82677D02*
X107283D01*
X49213Y93504D02*
Y94488D01*
Y90551D02*
Y93504D01*
Y87598D02*
Y90551D01*
Y87598D02*
X54134Y82677D01*
X18701Y60039D02*
X49213Y90551D01*
X18701Y42323D02*
Y60039D01*
Y42323D02*
X41339Y19685D01*
X45276D01*
X115157Y14764D02*
X120079Y19685D01*
X50197Y14764D02*
X115157D01*
X45276Y19685D02*
X50197Y14764D01*
X189961D02*
X194882Y19685D01*
X125000Y14764D02*
X189961D01*
X120079Y19685D02*
X125000Y14764D01*
X194882Y19685D02*
X199803Y14764D01*
X264764D01*
X269685Y19685D01*
X196653Y22835D02*
X200787Y18701D01*
X51181D02*
X62008D01*
X69685Y26378D01*
X118307D01*
X125984Y18701D02*
X136811D01*
X144488Y26378D01*
X193110D01*
X219291D02*
X267913D01*
X211614Y18701D02*
X219291Y26378D01*
X200787Y18701D02*
X211614D01*
X271457Y26378D02*
X274606Y29528D01*
X267913Y21457D02*
Y22835D01*
Y21457D02*
X269685Y19685D01*
X271457Y22835D02*
X275590Y18701D01*
X196653Y26378D02*
X199803Y29528D01*
X193110Y21457D02*
Y22835D01*
Y21457D02*
X194882Y19685D01*
X121850Y26378D02*
X125000Y29528D01*
X118307Y21457D02*
Y22835D01*
Y21457D02*
X120079Y19685D01*
X121850Y22835D02*
X125984Y18701D01*
X47047Y22835D02*
X51181Y18701D01*
X43504Y21457D02*
X45276Y19685D01*
X43504Y21457D02*
Y22835D01*
X47047Y26378D02*
X50197Y29528D01*
X43504Y26378D02*
Y28264D01*
X50197Y34957D01*
X222949D01*
X275590Y87598D01*
Y93504D01*
X208661Y88583D02*
X252953D01*
X265551Y101181D01*
X178150Y88583D02*
X190748Y101181D01*
X133858Y88583D02*
X178150D01*
X265551Y101181D02*
X267913D01*
X271457D02*
X273622Y103347D01*
X274606D01*
X267913Y95276D02*
Y97638D01*
Y95276D02*
X268701Y94488D01*
X271457Y97638D02*
X275590Y93504D01*
X190748Y101181D02*
X193110D01*
X196653D02*
X198819Y103347D01*
X199803D01*
X193110Y95276D02*
Y97638D01*
Y95276D02*
X193898Y94488D01*
X196653Y97638D02*
X200787Y93504D01*
X121850Y97638D02*
X125984Y93504D01*
X118307Y95276D02*
X119095Y94488D01*
X118307Y95276D02*
Y97638D01*
X57087Y65276D02*
Y138268D01*
X55276Y140079D02*
X57087Y138268D01*
X48228Y92520D02*
X49213Y93504D01*
X45276Y92520D02*
X48228D01*
X43504Y94291D02*
X45276Y92520D01*
X43504Y94291D02*
Y97638D01*
X124016Y103347D02*
X125000D01*
X121850Y101181D02*
X124016Y103347D01*
X106299Y91535D02*
X115945Y101181D01*
X118307D01*
X54134Y92520D02*
Y94488D01*
X50984Y97638D02*
X54134Y94488D01*
X47047Y97638D02*
X50984D01*
X31496Y93504D02*
X39173Y101181D01*
X43504D01*
X55276Y65276D02*
X57087D01*
X50000Y101181D02*
X50197Y101378D01*
X47047Y101181D02*
X50000D01*
X60650Y154154D02*
X64961Y158465D01*
X49059Y154154D02*
X60650D01*
X189134Y164567D02*
Y173228D01*
X199134Y164567D02*
Y173228D01*
X209134Y164567D02*
Y173228D01*
X219134Y164567D02*
Y173228D01*
X229134Y164567D02*
Y173228D01*
X22059Y149201D02*
Y159953D01*
Y149201D02*
X24465Y146795D01*
X41701D01*
X42322Y145295D02*
X49680Y152654D01*
X42943Y143795D02*
X50301Y151154D01*
X21186Y143795D02*
X42943D01*
X20565Y142295D02*
X43564D01*
X50923Y149653D01*
X44186Y140795D02*
X51544Y148153D01*
X19943Y140795D02*
X44186D01*
X44807Y139295D02*
X52165Y146653D01*
X19322Y139295D02*
X44807D01*
X18701Y137795D02*
X52992D01*
X21807Y145295D02*
X42322D01*
X41701Y146795D02*
X49059Y154154D01*
X20559Y161237D02*
X37341Y178020D01*
X20559Y146544D02*
Y161237D01*
X17811Y160790D02*
X22642Y165621D01*
X16311Y161411D02*
X21142Y166242D01*
X14811Y162032D02*
X19642Y166863D01*
X13311Y162654D02*
X18142Y167484D01*
X11811Y163275D02*
X16642Y168106D01*
X20559Y146544D02*
X21807Y145295D01*
X17811Y147170D02*
Y160790D01*
X16311Y146549D02*
Y161411D01*
X14811Y145928D02*
Y162032D01*
X13311Y145306D02*
Y162654D01*
X11811Y144685D02*
Y163275D01*
X17811Y147170D02*
X21186Y143795D01*
X16311Y146549D02*
X20565Y142295D01*
X14811Y145928D02*
X19943Y140795D01*
X13311Y145306D02*
X19322Y139295D01*
X11811Y144685D02*
X18701Y137795D01*
X22642Y166104D02*
X35950Y179412D01*
X22642Y165621D02*
Y166104D01*
X49680Y152654D02*
X60556D01*
X69414Y143795D01*
X50301Y151154D02*
X59935D01*
X68793Y142295D01*
X69414Y143795D02*
X103288D01*
X108736Y149243D01*
Y158980D01*
X106299Y161417D02*
X108736Y158980D01*
X106299Y161417D02*
Y164370D01*
X68793Y142295D02*
X103910D01*
X110236Y148622D01*
Y162402D01*
X111221Y170276D02*
X115626Y174681D01*
Y184460D01*
X113189Y186897D02*
X115626Y184460D01*
X113189Y186897D02*
Y189961D01*
X116142Y170276D02*
X117126Y171260D01*
Y187008D01*
X84646Y168823D02*
X86614Y170791D01*
X81330Y168823D02*
X84646D01*
X78377Y171776D02*
X81330Y168823D01*
X72711Y171776D02*
X78377D01*
X77756Y170276D02*
X80709Y167323D01*
X131496D01*
X49034Y173844D02*
X55992Y166886D01*
X76245D01*
X41339Y185039D02*
X45276Y181102D01*
Y180386D02*
Y181102D01*
X40125Y175236D02*
X45276Y180386D01*
Y171260D02*
Y173228D01*
X44291Y170276D02*
X45276Y171260D01*
X42323Y170276D02*
X44291D01*
X41517Y171081D02*
X42323Y170276D01*
X41517Y171081D02*
Y173844D01*
X22059Y159953D02*
X38734Y176628D01*
X21142Y166242D02*
Y167388D01*
X19642Y166863D02*
Y168672D01*
X18142Y167484D02*
Y169955D01*
X16642Y168106D02*
Y171239D01*
X13780Y169291D02*
Y171161D01*
X28990Y186371D01*
X16642Y171239D02*
X30382Y184979D01*
X18142Y169955D02*
X31774Y183587D01*
X19642Y168672D02*
X33166Y182195D01*
X21142Y167388D02*
X34558Y180804D01*
X280003Y65276D02*
Y139760D01*
X50923Y149653D02*
X59313D01*
X68172Y140795D01*
X119610Y139295D02*
X126969Y146653D01*
X67550Y139295D02*
X119610D01*
X68172Y140795D02*
X118989D01*
X126347Y148153D01*
X133495D01*
X142354Y139295D01*
X194413D01*
X201772Y146653D01*
X207677D01*
X216535Y137795D01*
X277402D01*
X279685Y140079D01*
X51544Y148153D02*
X58692D01*
X67550Y139295D01*
X126969Y146653D02*
X132874D01*
X205200Y65276D02*
Y139760D01*
X132874Y146653D02*
X141732Y137795D01*
X202598D01*
X204882Y140079D01*
X130397Y65276D02*
Y139760D01*
X52165Y146653D02*
X58071D01*
X66929Y137795D01*
X127795D01*
X130079Y140079D01*
X10827Y167323D02*
Y170992D01*
X7874Y165354D02*
Y170823D01*
X26206Y189155D01*
X10827Y170992D02*
X27598Y187763D01*
X52992Y137795D02*
X55276Y140079D01*
X279685Y65276D02*
X280003D01*
X279685Y140079D02*
X280003Y139760D01*
X204882Y65276D02*
X205200D01*
X204882Y140079D02*
X205200Y139760D01*
X130079Y65276D02*
X130397D01*
X130079Y140079D02*
X130397Y139760D01*
X83820Y200946D02*
X85948Y198819D01*
X87598D01*
X87439Y204565D02*
X92361D01*
X95314Y179959D02*
X100235D01*
X93822Y174213D02*
X95472D01*
X91694Y176340D02*
X93822Y174213D01*
X80375Y186650D02*
Y194231D01*
Y186650D02*
X80410D01*
X70866Y203740D02*
X80375Y194231D01*
X65846Y203740D02*
X70866D01*
X61561Y199455D02*
X65846Y203740D01*
X86256Y180804D02*
X87231D01*
X91694Y176340D01*
X85004Y191243D02*
X92221D01*
X96457Y187008D01*
Y181102D02*
Y187008D01*
X95314Y179959D02*
X96457Y181102D01*
X76006Y218723D02*
X83442D01*
X89567Y212598D01*
Y206693D02*
Y212598D01*
X87439Y204565D02*
X89567Y206693D01*
X79239Y205527D02*
X83820Y200946D01*
X76953Y205527D02*
X79239D01*
X58989Y202239D02*
Y202663D01*
X68925Y212598D02*
X69882D01*
X58989Y202663D02*
X68925Y212598D01*
X58777Y202239D02*
X58989D01*
X142717Y182087D02*
X145669Y179134D01*
X142717Y182087D02*
Y183465D01*
X148622Y188583D02*
Y189961D01*
X145669Y192913D02*
X148622Y189961D01*
X130905Y181102D02*
X131102Y180905D01*
X136811D01*
X140157D01*
X142717Y183465D01*
X148622D01*
X150492D01*
X154528Y187500D01*
X160433D01*
X136614Y187008D02*
X136614Y187008D01*
X139764D01*
X141339Y188583D01*
X142717D01*
X148622D02*
X152461Y192421D01*
X154528D01*
X130905Y187008D02*
X136614D01*
X142717Y188583D02*
X148622D01*
X154528Y192421D02*
X160433D01*
X145669Y203740D02*
X147441Y205512D01*
X150591D01*
X152559Y212598D02*
X157480Y207677D01*
Y204232D02*
Y207677D01*
X150591Y198031D02*
X156201D01*
X157480Y199311D01*
X134843Y205512D02*
X140748D01*
X133071D02*
X134843D01*
X136811Y203543D01*
Y199803D02*
Y203543D01*
Y199803D02*
X138583Y198031D01*
X140748D01*
X132165Y196890D02*
X134803D01*
X136811Y194882D01*
X142717D01*
X144685Y196850D01*
Y199803D01*
X142717Y201772D02*
X144685Y199803D01*
X140748Y201772D02*
X142717D01*
X148228Y212598D02*
X152559D01*
X130905Y207677D02*
X133071Y205512D01*
X127953Y207677D02*
X130905D01*
X124016Y211614D02*
X127953Y207677D01*
X117126Y212598D02*
X122047Y217520D01*
X124016D01*
X123622Y203740D02*
X124016Y203346D01*
X118110Y203740D02*
X123622D01*
X106299Y191929D02*
Y196260D01*
Y191929D02*
X108268Y189961D01*
X113189Y189961D02*
X115157Y191929D01*
Y204724D01*
D17*
X133465Y167323D02*
D03*
X157874D02*
D03*
D18*
X64345Y196672D02*
D03*
X62953Y198064D02*
D03*
X61561Y199455D02*
D03*
X60169Y200848D02*
D03*
X58777Y202239D02*
D03*
X57385Y203631D02*
D03*
X55994Y205023D02*
D03*
X54602Y206415D02*
D03*
X53210Y207807D02*
D03*
X51818Y209199D02*
D03*
X50426Y210591D02*
D03*
X49034Y211983D02*
D03*
X26206Y189155D02*
D03*
X27598Y187763D02*
D03*
X28990Y186371D02*
D03*
X30382Y184979D02*
D03*
X31774Y183587D02*
D03*
X33166Y182195D02*
D03*
X34558Y180804D02*
D03*
X35950Y179412D02*
D03*
X37341Y178020D02*
D03*
X38734Y176628D02*
D03*
X40125Y175236D02*
D03*
D19*
X41517Y211983D02*
D03*
X40125Y210591D02*
D03*
X38734Y209199D02*
D03*
X37341Y207807D02*
D03*
X35950Y206415D02*
D03*
X34558Y205023D02*
D03*
X33166Y203631D02*
D03*
X31774Y202239D02*
D03*
X30382Y200848D02*
D03*
X28990Y199455D02*
D03*
X27598Y198064D02*
D03*
X26206Y196672D02*
D03*
X49034Y173844D02*
D03*
X50426Y175236D02*
D03*
X51818Y176628D02*
D03*
X53210Y178020D02*
D03*
X54602Y179412D02*
D03*
X55994Y180804D02*
D03*
X57385Y182195D02*
D03*
X58777Y183587D02*
D03*
X60169Y184979D02*
D03*
X61561Y186371D02*
D03*
X62953Y187763D02*
D03*
X64345Y189155D02*
D03*
D20*
X41517Y173844D02*
D03*
D21*
X143110Y212598D02*
D03*
X148228D02*
D03*
D22*
X130905Y187008D02*
D03*
Y181102D02*
D03*
X124016Y211614D02*
D03*
Y217520D02*
D03*
D23*
X136811Y180905D02*
D03*
Y187205D02*
D03*
D24*
X142717Y188583D02*
D03*
Y183465D02*
D03*
X148622Y188583D02*
D03*
Y183465D02*
D03*
D25*
X154528Y187500D02*
D03*
Y192421D02*
D03*
X160433D02*
D03*
Y187500D02*
D03*
X157480Y204232D02*
D03*
Y199311D02*
D03*
D26*
X150591Y198031D02*
D03*
Y205512D02*
D03*
X140748Y198031D02*
D03*
Y201772D02*
D03*
Y205512D02*
D03*
D27*
X47047Y26378D02*
D03*
X43504D02*
D03*
Y22835D02*
D03*
X47047D02*
D03*
X271457Y101181D02*
D03*
X267913D02*
D03*
Y97638D02*
D03*
X271457D02*
D03*
X196653Y101181D02*
D03*
X193110D02*
D03*
Y97638D02*
D03*
X196653D02*
D03*
X121850Y101181D02*
D03*
X118307D02*
D03*
Y97638D02*
D03*
X121850D02*
D03*
X47047Y101181D02*
D03*
X43504D02*
D03*
Y97638D02*
D03*
X47047D02*
D03*
X271457Y26378D02*
D03*
X267913D02*
D03*
Y22835D02*
D03*
X271457D02*
D03*
X196653Y26378D02*
D03*
X193110D02*
D03*
Y22835D02*
D03*
X196653D02*
D03*
X121850Y26378D02*
D03*
X118307D02*
D03*
Y22835D02*
D03*
X121850D02*
D03*
D28*
X90850Y185397D02*
D03*
X85004Y191243D02*
D03*
X80410Y186650D02*
D03*
X86256Y180804D02*
D03*
D29*
X95314Y179959D02*
D03*
X91694Y176340D02*
D03*
X83820Y200946D02*
D03*
X87439Y204565D02*
D03*
D30*
X106299Y196260D02*
D03*
Y203346D02*
D03*
X124016Y196260D02*
D03*
Y203346D02*
D03*
D31*
X83078Y211652D02*
D03*
X76006Y218723D02*
D03*
X69882Y212598D02*
D03*
X76953Y205527D02*
D03*
D32*
X179134Y173228D02*
D03*
X249134D02*
D03*
X239134D02*
D03*
X229134D02*
D03*
X219134D02*
D03*
X209134D02*
D03*
X199134D02*
D03*
X189134D02*
D03*
D58*
X308563Y88583D02*
D03*
Y76772D02*
D03*
D59*
X98150Y217992D02*
D03*
X132165D02*
D03*
D60*
Y196890D02*
D03*
X98150D02*
D03*
D61*
X269685Y120079D02*
D03*
X194882D02*
D03*
X120079D02*
D03*
X45276D02*
D03*
X269685Y45276D02*
D03*
X194882D02*
D03*
X120079D02*
D03*
X45276D02*
D03*
D62*
X254685Y130079D02*
D03*
X279685Y140079D02*
D03*
X179882Y130079D02*
D03*
X204882Y140079D02*
D03*
X105079Y130079D02*
D03*
X130079Y140079D02*
D03*
X30276Y130079D02*
D03*
X55276Y140079D02*
D03*
X254685Y55276D02*
D03*
X279685Y65276D02*
D03*
X179882Y55276D02*
D03*
X204882Y65276D02*
D03*
X105079Y55276D02*
D03*
X130079Y65276D02*
D03*
X30276Y55276D02*
D03*
X55276Y65276D02*
D03*
D63*
X289685Y120079D02*
D03*
X249685D02*
D03*
X214882D02*
D03*
X174882D02*
D03*
X140079D02*
D03*
X100079D02*
D03*
X65276D02*
D03*
X25276D02*
D03*
X289685Y45276D02*
D03*
X249685D02*
D03*
X214882D02*
D03*
X174882D02*
D03*
X140079D02*
D03*
X100079D02*
D03*
X65276D02*
D03*
X25276D02*
D03*
D64*
X51181Y199803D02*
D03*
X47244Y202756D02*
D03*
X61024Y211614D02*
D03*
X37402Y190945D02*
D03*
X24606Y192913D02*
D03*
X69882Y187992D02*
D03*
X71850Y183071D02*
D03*
X67913Y180118D02*
D03*
X70866Y176181D02*
D03*
X69882Y199803D02*
D03*
X7874Y194882D02*
D03*
X19685Y210630D02*
D03*
X5906Y175197D02*
D03*
X8858Y182503D02*
D03*
X14764Y188976D02*
D03*
X28543Y152559D02*
D03*
X38386Y162402D02*
D03*
X303150Y96457D02*
D03*
X249134Y164370D02*
D03*
X239134Y164409D02*
D03*
X179134Y164370D02*
D03*
X255906Y82677D02*
D03*
X181102D02*
D03*
X106299D02*
D03*
X54134D02*
D03*
X96929Y162402D02*
D03*
X116142Y158465D02*
D03*
X75787Y132874D02*
D03*
X72835Y90551D02*
D03*
X274606Y29528D02*
D03*
X269685Y19685D02*
D03*
X275590Y18701D02*
D03*
X199803Y29528D02*
D03*
X194882Y19685D02*
D03*
X200787Y18701D02*
D03*
X125000Y29528D02*
D03*
X120079Y19685D02*
D03*
X125984Y18701D02*
D03*
X51181D02*
D03*
X45276Y19685D02*
D03*
X50197Y29528D02*
D03*
X208661Y88583D02*
D03*
X133858D02*
D03*
X274606Y103347D02*
D03*
X268701Y94488D02*
D03*
X275590Y93504D02*
D03*
X199803Y103347D02*
D03*
X193898Y94488D02*
D03*
X200787Y93504D02*
D03*
X125984D02*
D03*
X119095Y94488D02*
D03*
X49213D02*
D03*
X125000Y103347D02*
D03*
X106299Y91535D02*
D03*
X31496Y93504D02*
D03*
X54134Y92520D02*
D03*
X50197Y101378D02*
D03*
X64961Y158465D02*
D03*
X229134Y164567D02*
D03*
X219134D02*
D03*
X209134D02*
D03*
X199134D02*
D03*
X189134D02*
D03*
X110236Y162402D02*
D03*
X106299Y164370D02*
D03*
X111221Y170276D02*
D03*
X116142D02*
D03*
X117126Y187008D02*
D03*
X86614Y170791D02*
D03*
X76245Y166886D02*
D03*
X41339Y185039D02*
D03*
X45276Y173228D02*
D03*
X13780Y169291D02*
D03*
X10827Y167323D02*
D03*
X7874Y165354D02*
D03*
X87598Y198819D02*
D03*
X92361Y204565D02*
D03*
X100235Y179959D02*
D03*
X95472Y174213D02*
D03*
X145669Y203740D02*
D03*
X152559Y212598D02*
D03*
X108268Y189961D02*
D03*
X113189Y189961D02*
D03*
X118110Y203740D02*
D03*
X115157Y204724D02*
D03*
D65*
X145669Y179134D02*
D03*
Y192913D02*
D03*
D66*
X117126Y212598D02*
D03*
M02*
